<?xml version="1.0" encoding="utf-8"?>
<!-- Generator: Adobe Illustrator 16.0.4, SVG Export Plug-In . SVG Version: 6.00 Build 0)  -->
<!DOCTYPE svg PUBLIC "-//W3C//DTD SVG 1.1//EN" "http://www.w3.org/Graphics/SVG/1.1/DTD/svg11.dtd">
<svg version="1.1" id="Layer_1" xmlns="http://www.w3.org/2000/svg" xmlns:xlink="http://www.w3.org/1999/xlink" x="0px" y="0px"
	 width="512px" height="512px" viewBox="0 0 512 512" enable-background="new 0 0 512 512" xml:space="preserve">
<path fill="#FFFFFF" stroke="#FFFFFF" stroke-width="0.144" d="M408.011,173.216c-38.963,0-75.774,2.599-110.134,6.967
	c30.972-58.263,62.109-99.644,82.322-127.188c1.065-1.455,1.72-3.301,1.72-5.187c0-3.808-3.641-7.298-7.597-7.298
	c-3.962,0-70.128,58.02-86.094,73.689c-7.156,7.033-35.389,35.256-69.587,79.789C89.559,222.773,10.26,271.914,5.036,277.438
	c-3.139,3.336-4.474,6.371-4.474,11.62c0,7.938,7.086,14.363,15.481,14.363c4.412,0,8.287-2.302,10.226-4.25
	c12.509-12.506,82.495-46.261,168.929-73.246c-40.565,57.883-84.468,135-110.318,224.48c-2.717,9.358,5.386,17.488,13.552,18.196
	c6.894,0.609,13.598-3.503,15.823-10.572C128.266,413.515,158.3,319.5,231.137,215.396c8.587-2.346,17.274-4.589,26.026-6.726
	c-45.227,87.223-60.767,149.712-60.798,153.717c-0.078,9.974,6.062,16.763,15.115,16.763c2.928,0,8.284-2.124,9.667-3.462
	c4.964-4.872,25.041-29.747,71.961-70.591c-22.486,42.228-47.366,103.808-58.162,143.495c-1.34,4.915,1.069,10.284,6.429,10.284
	c4.607,0,123.233-57.761,224.008-158.541c27.664-27.668,46.049-58.404,46.049-80.043
	C511.432,184.161,463.729,173.216,408.011,173.216z M251.672,187.309c17.154-22.458,36.33-45.206,57.846-67.879
	c-14.737,22.4-27.746,44.096-39.172,64.69C264.03,185.132,257.799,186.196,251.672,187.309z M457.262,287.044
	C357.316,387.49,254.654,436.562,254.654,436.562c44.344-128.502,71.521-155.929,71.521-161.344c0-4.505-3.326-8.163-6.994-8.163
	c-8.541,0-54.05,33.833-79.779,53.177c14.11-44.921,30.492-84.136,47.303-118.223c40.127-8.327,80.731-13.611,118.517-13.611
	c69.264,0,91.011,15.112,91.011,32.328C496.232,243.562,464.484,279.772,457.262,287.044z"/>
</svg>
